<svg width="232" height="48" viewBox="0 0 232 48" fill="none" xmlns="http://www.w3.org/2000/svg">
<path d="M6 36V24C6 19.2261 7.89642 14.6477 11.2721 11.2721C14.6477 7.89642 19.2261 6 24 6C28.7739 6 33.3523 7.89642 36.7279 11.2721C40.1036 14.6477 42 19.2261 42 24V36M42 38C42 39.0609 41.5786 40.0783 40.8284 40.8284C40.0783 41.5786 39.0609 42 38 42H36C34.9391 42 33.9217 41.5786 33.1716 40.8284C32.4214 40.0783 32 39.0609 32 38V32C32 30.9391 32.4214 29.9217 33.1716 29.1716C33.9217 28.4214 34.9391 28 36 28H42V38ZM6 38C6 39.0609 6.42143 40.0783 7.17157 40.8284C7.92172 41.5786 8.93913 42 10 42H12C13.0609 42 14.0783 41.5786 14.8284 40.8284C15.5786 40.0783 16 39.0609 16 38V32C16 30.9391 15.5786 29.9217 14.8284 29.1716C14.0783 28.4214 13.0609 28 12 28H6V38Z" stroke="#1E1E1E" stroke-linecap="round" stroke-linejoin="round"/>
<path d="M6 36V24C6 19.2261 7.89642 14.6477 11.2721 11.2721C14.6477 7.89642 19.2261 6 24 6C28.7739 6 33.3523 7.89642 36.7279 11.2721C40.1036 14.6477 42 19.2261 42 24V36M42 38C42 39.0609 41.5786 40.0783 40.8284 40.8284C40.0783 41.5786 39.0609 42 38 42H36C34.9391 42 33.9217 41.5786 33.1716 40.8284C32.4214 40.0783 32 39.0609 32 38V32C32 30.9391 32.4214 29.9217 33.1716 29.1716C33.9217 28.4214 34.9391 28 36 28H42V38ZM6 38C6 39.0609 6.42143 40.0783 7.17157 40.8284C7.92172 41.5786 8.93913 42 10 42H12C13.0609 42 14.0783 41.5786 14.8284 40.8284C15.5786 40.0783 16 39.0609 16 38V32C16 30.9391 15.5786 29.9217 14.8284 29.1716C14.0783 28.4214 13.0609 28 12 28H6V38Z" stroke="black" stroke-opacity="0.2" stroke-linecap="round" stroke-linejoin="round"/>
<line x1="52.5" y1="2" x2="52.5" y2="46" stroke="black"/>
<path d="M64.12 27V10.248H65.56V25.752H73.768V27H64.12ZM82.5906 27.288C80.8946 27.288 79.5666 26.72 78.6066 25.584C77.6626 24.448 77.1906 22.856 77.1906 20.808C77.1906 18.76 77.6626 17.168 78.6066 16.032C79.5666 14.896 80.8946 14.328 82.5906 14.328C84.2866 14.328 85.6066 14.896 86.5506 16.032C87.5106 17.168 87.9906 18.76 87.9906 20.808C87.9906 22.856 87.5106 24.448 86.5506 25.584C85.6066 26.72 84.2866 27.288 82.5906 27.288ZM82.5906 26.088C83.8066 26.088 84.7666 25.704 85.4706 24.936C86.1746 24.168 86.5266 23.048 86.5266 21.576V20.04C86.5266 18.568 86.1746 17.448 85.4706 16.68C84.7666 15.912 83.8066 15.528 82.5906 15.528C81.3746 15.528 80.4146 15.912 79.7106 16.68C79.0066 17.448 78.6546 18.568 78.6546 20.04V21.576C78.6546 23.048 79.0066 24.168 79.7106 24.936C80.4146 25.704 81.3746 26.088 82.5906 26.088ZM96.9813 27.288C95.2853 27.288 93.9573 26.72 92.9973 25.584C92.0533 24.448 91.5813 22.856 91.5813 20.808C91.5813 18.76 92.0533 17.168 92.9973 16.032C93.9573 14.896 95.2853 14.328 96.9813 14.328C98.6773 14.328 99.9973 14.896 100.941 16.032C101.901 17.168 102.381 18.76 102.381 20.808C102.381 22.856 101.901 24.448 100.941 25.584C99.9973 26.72 98.6773 27.288 96.9813 27.288ZM96.9813 26.088C98.1973 26.088 99.1573 25.704 99.8613 24.936C100.565 24.168 100.917 23.048 100.917 21.576V20.04C100.917 18.568 100.565 17.448 99.8613 16.68C99.1573 15.912 98.1973 15.528 96.9813 15.528C95.7653 15.528 94.8053 15.912 94.1013 16.68C93.3973 17.448 93.0453 18.568 93.0453 20.04V21.576C93.0453 23.048 93.3973 24.168 94.1013 24.936C94.8053 25.704 95.7653 26.088 96.9813 26.088ZM106.74 14.616H108.108V16.584H108.18C108.532 15.912 109.02 15.368 109.644 14.952C110.284 14.536 111.076 14.328 112.02 14.328C113.572 14.328 114.78 14.888 115.644 16.008C116.508 17.112 116.94 18.712 116.94 20.808C116.94 22.904 116.508 24.512 115.644 25.632C114.78 26.736 113.572 27.288 112.02 27.288C111.076 27.288 110.284 27.08 109.644 26.664C109.02 26.248 108.532 25.704 108.18 25.032H108.108V31.8H106.74V14.616ZM111.564 26.064C112.812 26.064 113.772 25.672 114.444 24.888C115.132 24.104 115.476 23.032 115.476 21.672V19.944C115.476 18.584 115.132 17.512 114.444 16.728C113.772 15.944 112.812 15.552 111.564 15.552C111.1 15.552 110.66 15.616 110.244 15.744C109.828 15.872 109.46 16.056 109.14 16.296C108.82 16.536 108.564 16.832 108.372 17.184C108.196 17.536 108.108 17.928 108.108 18.36V23.256C108.108 23.688 108.196 24.08 108.372 24.432C108.564 24.784 108.82 25.08 109.14 25.32C109.46 25.56 109.828 25.744 110.244 25.872C110.66 26 111.1 26.064 111.564 26.064ZM126.531 11.304C126.099 11.304 125.787 11.216 125.595 11.04C125.419 10.848 125.331 10.616 125.331 10.344V10.032C125.331 9.76 125.419 9.536 125.595 9.36C125.787 9.168 126.099 9.072 126.531 9.072C126.963 9.072 127.267 9.168 127.443 9.36C127.635 9.536 127.731 9.76 127.731 10.032V10.344C127.731 10.616 127.635 10.848 127.443 11.04C127.267 11.216 126.963 11.304 126.531 11.304ZM121.203 25.824H125.859V15.792H121.203V14.616H127.227V25.824H131.571V27H121.203V25.824ZM135.569 27V14.616H136.937V16.536H137.033C137.273 15.96 137.673 15.448 138.233 15C138.809 14.552 139.617 14.328 140.657 14.328C142.001 14.328 143.041 14.736 143.777 15.552C144.529 16.352 144.905 17.504 144.905 19.008V27H143.537V19.248C143.537 17.968 143.257 17.032 142.697 16.44C142.153 15.848 141.353 15.552 140.297 15.552C139.865 15.552 139.449 15.608 139.049 15.72C138.649 15.832 138.289 16 137.969 16.224C137.665 16.448 137.417 16.736 137.225 17.088C137.033 17.424 136.937 17.824 136.937 18.288V27H135.569ZM154.544 27.168C154.032 27.168 153.672 27.064 153.464 26.856C153.256 26.648 153.152 26.376 153.152 26.04V25.704C153.152 25.384 153.256 25.12 153.464 24.912C153.672 24.688 154.032 24.576 154.544 24.576C155.056 24.576 155.416 24.688 155.624 24.912C155.832 25.12 155.936 25.384 155.936 25.704V26.04C155.936 26.376 155.832 26.648 155.624 26.856C155.416 27.064 155.056 27.168 154.544 27.168ZM173.23 27C172.67 27 172.27 26.864 172.03 26.592C171.79 26.32 171.654 25.952 171.622 25.488V25.056H171.502C171.23 25.712 170.782 26.248 170.158 26.664C169.534 27.08 168.686 27.288 167.614 27.288C166.318 27.288 165.294 26.976 164.542 26.352C163.806 25.712 163.438 24.816 163.438 23.664C163.438 23.12 163.526 22.632 163.702 22.2C163.894 21.752 164.19 21.376 164.59 21.072C165.006 20.768 165.534 20.536 166.174 20.376C166.814 20.2 167.598 20.112 168.526 20.112H171.55V18.6C171.55 17.56 171.262 16.784 170.686 16.272C170.126 15.76 169.342 15.504 168.334 15.504C166.638 15.504 165.454 16.184 164.782 17.544L163.846 16.872C164.166 16.152 164.702 15.552 165.454 15.072C166.222 14.576 167.206 14.328 168.406 14.328C169.814 14.328 170.918 14.696 171.718 15.432C172.518 16.152 172.918 17.16 172.918 18.456V25.8H174.766V27H173.23ZM167.83 26.136C168.358 26.136 168.846 26.072 169.294 25.944C169.742 25.816 170.134 25.64 170.47 25.416C170.806 25.176 171.07 24.888 171.262 24.552C171.454 24.216 171.55 23.84 171.55 23.424V21.144H168.526C167.23 21.144 166.294 21.344 165.718 21.744C165.158 22.128 164.878 22.656 164.878 23.328V23.952C164.878 24.672 165.142 25.216 165.67 25.584C166.214 25.952 166.934 26.136 167.83 26.136ZM184.093 11.304C183.661 11.304 183.349 11.216 183.157 11.04C182.981 10.848 182.893 10.616 182.893 10.344V10.032C182.893 9.76 182.981 9.536 183.157 9.36C183.349 9.168 183.661 9.072 184.093 9.072C184.525 9.072 184.829 9.168 185.005 9.36C185.197 9.536 185.293 9.76 185.293 10.032V10.344C185.293 10.616 185.197 10.848 185.005 11.04C184.829 11.216 184.525 11.304 184.093 11.304ZM178.765 25.824H183.421V15.792H178.765V14.616H184.789V25.824H189.133V27H178.765V25.824Z" fill="black"/>
<path d="M65.84 42.12C65.2667 42.12 64.7867 42.0133 64.4 41.8C64.02 41.58 63.6933 41.29 63.42 40.93L63.87 40.56C64.1167 40.8867 64.3933 41.14 64.7 41.32C65.0133 41.5 65.4 41.59 65.86 41.59C66.4 41.59 66.8133 41.4633 67.1 41.21C67.3933 40.95 67.54 40.59 67.54 40.13C67.54 39.7033 67.4167 39.39 67.17 39.19C66.9233 38.99 66.5767 38.8433 66.13 38.75L65.51 38.62C64.8433 38.4867 64.36 38.2633 64.06 37.95C63.76 37.6367 63.61 37.2367 63.61 36.75C63.61 36.4433 63.6633 36.1767 63.77 35.95C63.8767 35.7167 64.0267 35.5233 64.22 35.37C64.42 35.2167 64.6567 35.1 64.93 35.02C65.21 34.94 65.5167 34.9 65.85 34.9C66.37 34.9 66.81 34.9933 67.17 35.18C67.53 35.3667 67.8267 35.63 68.06 35.97L67.61 36.3C67.4167 36.02 67.1733 35.8067 66.88 35.66C66.5933 35.5067 66.24 35.43 65.82 35.43C65.32 35.43 64.9233 35.54 64.63 35.76C64.3433 35.9733 64.2 36.2967 64.2 36.73C64.2 37.1433 64.33 37.4467 64.59 37.64C64.85 37.8333 65.1967 37.9733 65.63 38.06L66.25 38.19C66.9433 38.3433 67.43 38.58 67.71 38.9C67.99 39.22 68.13 39.62 68.13 40.1C68.13 40.74 67.9267 41.2367 67.52 41.59C67.1133 41.9433 66.5533 42.12 65.84 42.12ZM72.8136 41.19H72.7736C72.7269 41.31 72.6636 41.4267 72.5836 41.54C72.5036 41.6533 72.4036 41.7533 72.2836 41.84C72.1636 41.92 72.0203 41.9867 71.8536 42.04C71.6936 42.0933 71.5036 42.12 71.2836 42.12C70.7369 42.12 70.3103 41.9533 70.0036 41.62C69.6969 41.28 69.5436 40.7967 69.5436 40.17V36.88H70.1136V40.06C70.1136 40.5867 70.2269 40.9767 70.4536 41.23C70.6803 41.4833 71.0069 41.61 71.4336 41.61C71.6136 41.61 71.7836 41.5867 71.9436 41.54C72.1103 41.4933 72.2569 41.4233 72.3836 41.33C72.5169 41.2367 72.6203 41.12 72.6936 40.98C72.7736 40.8333 72.8136 40.6633 72.8136 40.47V36.88H73.3836V42H72.8136V41.19ZM75.2484 36.88H75.8184V37.7H75.8484C75.975 37.4133 76.1684 37.1867 76.4284 37.02C76.6884 36.8467 77.015 36.76 77.4084 36.76C78.0684 36.76 78.585 36.9933 78.9584 37.46C79.3317 37.9267 79.5184 38.5867 79.5184 39.44C79.5184 40.2933 79.3317 40.9533 78.9584 41.42C78.585 41.8867 78.0684 42.12 77.4084 42.12C77.015 42.12 76.6917 42.0367 76.4384 41.87C76.185 41.6967 75.9884 41.4667 75.8484 41.18H75.8184V44H75.2484V36.88ZM77.2784 41.61C77.7917 41.61 78.1917 41.4467 78.4784 41.12C78.765 40.7933 78.9084 40.3533 78.9084 39.8V39.08C78.9084 38.5267 78.765 38.0867 78.4784 37.76C78.1917 37.4333 77.7917 37.27 77.2784 37.27C77.0784 37.27 76.8884 37.3 76.7084 37.36C76.535 37.4133 76.3817 37.49 76.2484 37.59C76.115 37.69 76.0084 37.81 75.9284 37.95C75.855 38.09 75.8184 38.2433 75.8184 38.41V40.44C75.8184 40.62 75.855 40.7833 75.9284 40.93C76.0084 41.07 76.115 41.1933 76.2484 41.3C76.3817 41.4 76.535 41.4767 76.7084 41.53C76.8884 41.5833 77.0784 41.61 77.2784 41.61ZM80.9905 36.88H81.5605V37.7H81.5905C81.7172 37.4133 81.9105 37.1867 82.1705 37.02C82.4305 36.8467 82.7572 36.76 83.1505 36.76C83.8105 36.76 84.3272 36.9933 84.7005 37.46C85.0739 37.9267 85.2605 38.5867 85.2605 39.44C85.2605 40.2933 85.0739 40.9533 84.7005 41.42C84.3272 41.8867 83.8105 42.12 83.1505 42.12C82.7572 42.12 82.4339 42.0367 82.1805 41.87C81.9272 41.6967 81.7305 41.4667 81.5905 41.18H81.5605V44H80.9905V36.88ZM83.0205 41.61C83.5339 41.61 83.9339 41.4467 84.2205 41.12C84.5072 40.7933 84.6505 40.3533 84.6505 39.8V39.08C84.6505 38.5267 84.5072 38.0867 84.2205 37.76C83.9339 37.4333 83.5339 37.27 83.0205 37.27C82.8205 37.27 82.6305 37.3 82.4505 37.36C82.2772 37.4133 82.1239 37.49 81.9905 37.59C81.8572 37.69 81.7505 37.81 81.6705 37.95C81.5972 38.09 81.5605 38.2433 81.5605 38.41V40.44C81.5605 40.62 81.5972 40.7833 81.6705 40.93C81.7505 41.07 81.8572 41.1933 81.9905 41.3C82.1239 41.4 82.2772 41.4767 82.4505 41.53C82.6305 41.5833 82.8205 41.61 83.0205 41.61ZM88.5527 42.12C88.2127 42.12 87.9061 42.06 87.6327 41.94C87.3594 41.82 87.1261 41.6467 86.9327 41.42C86.7394 41.1867 86.5894 40.9033 86.4827 40.57C86.3761 40.2367 86.3227 39.86 86.3227 39.44C86.3227 39.02 86.3761 38.6467 86.4827 38.32C86.5894 37.9867 86.7394 37.7067 86.9327 37.48C87.1261 37.2467 87.3594 37.07 87.6327 36.95C87.9061 36.8233 88.2127 36.76 88.5527 36.76C88.8927 36.76 89.1994 36.8233 89.4727 36.95C89.7461 37.07 89.9794 37.2467 90.1727 37.48C90.3661 37.7067 90.5161 37.9867 90.6227 38.32C90.7294 38.6467 90.7827 39.02 90.7827 39.44C90.7827 39.86 90.7294 40.2367 90.6227 40.57C90.5161 40.9033 90.3661 41.1867 90.1727 41.42C89.9794 41.6467 89.7461 41.82 89.4727 41.94C89.1994 42.06 88.8927 42.12 88.5527 42.12ZM88.5527 41.61C89.0527 41.61 89.4461 41.4533 89.7327 41.14C90.0261 40.8267 90.1727 40.3667 90.1727 39.76V39.12C90.1727 38.52 90.0261 38.0633 89.7327 37.75C89.4461 37.43 89.0527 37.27 88.5527 37.27C88.0527 37.27 87.6561 37.4267 87.3627 37.74C87.0761 38.0533 86.9327 38.5133 86.9327 39.12V39.76C86.9327 40.36 87.0761 40.82 87.3627 41.14C87.6561 41.4533 88.0527 41.61 88.5527 41.61ZM92.2308 42V36.88H92.8008V37.8H92.8408C92.9408 37.56 93.1108 37.3467 93.3508 37.16C93.5908 36.9733 93.9308 36.88 94.3708 36.88H94.7108V37.44H94.2608C93.8341 37.44 93.4841 37.5333 93.2108 37.72C92.9374 37.9067 92.8008 38.1667 92.8008 38.5V42H92.2308ZM96.7631 42C96.5565 42 96.3998 41.9433 96.2931 41.83C96.1865 41.7167 96.1331 41.5633 96.1331 41.37V37.38H95.2431V36.88H95.8231C95.9631 36.88 96.0565 36.8533 96.1031 36.8C96.1565 36.74 96.1831 36.6367 96.1831 36.49V35.45H96.7031V36.88H97.8631V37.38H96.7031V41.5H97.7831V42H96.7631ZM103.506 42.12C102.933 42.12 102.453 42.0133 102.066 41.8C101.686 41.58 101.359 41.29 101.086 40.93L101.536 40.56C101.783 40.8867 102.059 41.14 102.366 41.32C102.679 41.5 103.066 41.59 103.526 41.59C104.066 41.59 104.479 41.4633 104.766 41.21C105.059 40.95 105.206 40.59 105.206 40.13C105.206 39.7033 105.083 39.39 104.836 39.19C104.589 38.99 104.243 38.8433 103.796 38.75L103.176 38.62C102.509 38.4867 102.026 38.2633 101.726 37.95C101.426 37.6367 101.276 37.2367 101.276 36.75C101.276 36.4433 101.329 36.1767 101.436 35.95C101.543 35.7167 101.693 35.5233 101.886 35.37C102.086 35.2167 102.323 35.1 102.596 35.02C102.876 34.94 103.183 34.9 103.516 34.9C104.036 34.9 104.476 34.9933 104.836 35.18C105.196 35.3667 105.493 35.63 105.726 35.97L105.276 36.3C105.083 36.02 104.839 35.8067 104.546 35.66C104.259 35.5067 103.906 35.43 103.486 35.43C102.986 35.43 102.589 35.54 102.296 35.76C102.009 35.9733 101.866 36.2967 101.866 36.73C101.866 37.1433 101.996 37.4467 102.256 37.64C102.516 37.8333 102.863 37.9733 103.296 38.06L103.916 38.19C104.609 38.3433 105.096 38.58 105.376 38.9C105.656 39.22 105.796 39.62 105.796 40.1C105.796 40.74 105.593 41.2367 105.186 41.59C104.779 41.9433 104.219 42.12 103.506 42.12ZM107.28 42V36.88H107.85V37.69H107.88C107.933 37.5633 108 37.4467 108.08 37.34C108.16 37.2267 108.256 37.1267 108.37 37.04C108.483 36.9533 108.616 36.8867 108.77 36.84C108.93 36.7867 109.116 36.76 109.33 36.76C109.696 36.76 110.02 36.8467 110.3 37.02C110.58 37.1933 110.783 37.4667 110.91 37.84H110.94C111.033 37.54 111.21 37.2867 111.47 37.08C111.736 36.8667 112.096 36.76 112.55 36.76C113.096 36.76 113.516 36.93 113.81 37.27C114.103 37.6033 114.25 38.0833 114.25 38.71V42H113.68V38.81C113.68 37.7833 113.25 37.27 112.39 37.27C112.21 37.27 112.04 37.2933 111.88 37.34C111.72 37.3867 111.576 37.46 111.45 37.56C111.33 37.6533 111.233 37.7733 111.16 37.92C111.086 38.06 111.05 38.2233 111.05 38.41V42H110.48V38.81C110.48 37.7833 110.053 37.27 109.2 37.27C109.026 37.27 108.856 37.2933 108.69 37.34C108.53 37.3867 108.386 37.4567 108.26 37.55C108.133 37.6433 108.033 37.7633 107.96 37.91C107.886 38.05 107.85 38.2133 107.85 38.4V42H107.28ZM119.559 42C119.339 42 119.179 41.9433 119.079 41.83C118.979 41.7167 118.923 41.5633 118.909 41.37V41.19H118.859C118.746 41.4767 118.559 41.7033 118.299 41.87C118.039 42.0367 117.709 42.12 117.309 42.12C116.769 42.12 116.353 41.99 116.059 41.73C115.766 41.4633 115.619 41.09 115.619 40.61C115.619 40.1567 115.779 39.7967 116.099 39.53C116.426 39.2633 116.959 39.13 117.699 39.13H118.879V38.53C118.879 37.6833 118.443 37.26 117.569 37.26C117.229 37.26 116.946 37.3333 116.719 37.48C116.493 37.62 116.309 37.8233 116.169 38.09L115.809 37.79C115.949 37.49 116.163 37.2433 116.449 37.05C116.743 36.8567 117.123 36.76 117.589 36.76C118.189 36.76 118.649 36.91 118.969 37.21C119.289 37.51 119.449 37.93 119.449 38.47V41.5H120.139V42H119.559ZM117.389 41.63C117.596 41.63 117.789 41.6033 117.969 41.55C118.149 41.4967 118.306 41.4233 118.439 41.33C118.579 41.23 118.686 41.1133 118.759 40.98C118.839 40.84 118.879 40.6833 118.879 40.51V39.56H117.679C117.166 39.56 116.793 39.6433 116.559 39.81C116.333 39.97 116.219 40.1933 116.219 40.48V40.72C116.219 41.02 116.326 41.2467 116.539 41.4C116.753 41.5533 117.036 41.63 117.389 41.63ZM121.313 42V36.88H121.883V37.8H121.923C122.023 37.56 122.193 37.3467 122.433 37.16C122.673 36.9733 123.013 36.88 123.453 36.88H123.793V37.44H123.343C122.916 37.44 122.566 37.5333 122.293 37.72C122.019 37.9067 121.883 38.1667 121.883 38.5V42H121.313ZM125.845 42C125.638 42 125.482 41.9433 125.375 41.83C125.268 41.7167 125.215 41.5633 125.215 41.37V37.38H124.325V36.88H124.905C125.045 36.88 125.138 36.8533 125.185 36.8C125.238 36.74 125.265 36.6367 125.265 36.49V35.45H125.785V36.88H126.945V37.38H125.785V41.5H126.865V42H125.845ZM130.106 42.12C129.766 42.12 129.456 42.06 129.176 41.94C128.902 41.82 128.666 41.6467 128.466 41.42C128.272 41.1867 128.122 40.9033 128.016 40.57C127.916 40.2367 127.866 39.86 127.866 39.44C127.866 39.02 127.916 38.6467 128.016 38.32C128.122 37.9867 128.272 37.7067 128.466 37.48C128.666 37.2467 128.902 37.07 129.176 36.95C129.449 36.8233 129.756 36.76 130.096 36.76C130.422 36.76 130.719 36.8233 130.986 36.95C131.252 37.07 131.479 37.24 131.666 37.46C131.852 37.68 131.996 37.9467 132.096 38.26C132.202 38.5667 132.256 38.9067 132.256 39.28V39.55H128.466V39.8C128.466 40.0667 128.502 40.3133 128.576 40.54C128.656 40.76 128.766 40.95 128.906 41.11C129.052 41.27 129.229 41.3967 129.436 41.49C129.642 41.5767 129.876 41.62 130.136 41.62C130.882 41.62 131.399 41.2767 131.686 40.59L132.106 40.87C131.946 41.25 131.692 41.5533 131.346 41.78C131.006 42.0067 130.592 42.12 130.106 42.12ZM130.096 37.24C129.849 37.24 129.626 37.2867 129.426 37.38C129.226 37.4667 129.052 37.59 128.906 37.75C128.766 37.91 128.656 38.1033 128.576 38.33C128.502 38.55 128.466 38.7933 128.466 39.06V39.11H131.636V39.03C131.636 38.7633 131.599 38.52 131.526 38.3C131.452 38.0733 131.346 37.8833 131.206 37.73C131.072 37.5767 130.909 37.4567 130.716 37.37C130.529 37.2833 130.322 37.24 130.096 37.24ZM133.705 42V36.88H134.275V37.8H134.315C134.415 37.56 134.585 37.3467 134.825 37.16C135.065 36.9733 135.405 36.88 135.845 36.88H136.185V37.44H135.735C135.309 37.44 134.959 37.5333 134.685 37.72C134.412 37.9067 134.275 38.1667 134.275 38.5V42H133.705ZM136.888 42.09C136.721 42.09 136.598 42.05 136.518 41.97C136.445 41.8833 136.408 41.7733 136.408 41.64V41.53C136.408 41.3967 136.445 41.29 136.518 41.21C136.598 41.1233 136.721 41.08 136.888 41.08C137.048 41.08 137.168 41.1233 137.248 41.21C137.328 41.29 137.368 41.3967 137.368 41.53V41.64C137.368 41.7733 137.328 41.8833 137.248 41.97C137.168 42.05 137.048 42.09 136.888 42.09ZM143.389 42.12C142.815 42.12 142.335 42.0133 141.949 41.8C141.569 41.58 141.242 41.29 140.969 40.93L141.419 40.56C141.665 40.8867 141.942 41.14 142.249 41.32C142.562 41.5 142.949 41.59 143.409 41.59C143.949 41.59 144.362 41.4633 144.649 41.21C144.942 40.95 145.089 40.59 145.089 40.13C145.089 39.7033 144.965 39.39 144.719 39.19C144.472 38.99 144.125 38.8433 143.679 38.75L143.059 38.62C142.392 38.4867 141.909 38.2633 141.609 37.95C141.309 37.6367 141.159 37.2367 141.159 36.75C141.159 36.4433 141.212 36.1767 141.319 35.95C141.425 35.7167 141.575 35.5233 141.769 35.37C141.969 35.2167 142.205 35.1 142.479 35.02C142.759 34.94 143.065 34.9 143.399 34.9C143.919 34.9 144.359 34.9933 144.719 35.18C145.079 35.3667 145.375 35.63 145.609 35.97L145.159 36.3C144.965 36.02 144.722 35.8067 144.429 35.66C144.142 35.5067 143.789 35.43 143.369 35.43C142.869 35.43 142.472 35.54 142.179 35.76C141.892 35.9733 141.749 36.2967 141.749 36.73C141.749 37.1433 141.879 37.4467 142.139 37.64C142.399 37.8333 142.745 37.9733 143.179 38.06L143.799 38.19C144.492 38.3433 144.979 38.58 145.259 38.9C145.539 39.22 145.679 39.62 145.679 40.1C145.679 40.74 145.475 41.2367 145.069 41.59C144.662 41.9433 144.102 42.12 143.389 42.12ZM148.962 42.12C148.256 42.12 147.709 41.8867 147.322 41.42C146.942 40.9533 146.752 40.2933 146.752 39.44C146.752 38.5867 146.942 37.9267 147.322 37.46C147.709 36.9933 148.256 36.76 148.962 36.76C149.436 36.76 149.819 36.8633 150.112 37.07C150.406 37.2767 150.629 37.55 150.782 37.89L150.302 38.13C150.182 37.85 150.012 37.6367 149.792 37.49C149.579 37.3433 149.302 37.27 148.962 37.27C148.442 37.27 148.046 37.4367 147.772 37.77C147.499 38.1033 147.362 38.54 147.362 39.08V39.8C147.362 40.34 147.499 40.7767 147.772 41.11C148.046 41.4433 148.442 41.61 148.962 41.61C149.316 41.61 149.612 41.5333 149.852 41.38C150.092 41.2267 150.286 41.0067 150.432 40.72L150.852 41C150.686 41.34 150.446 41.6133 150.132 41.82C149.826 42.02 149.436 42.12 148.962 42.12ZM155.643 42C155.423 42 155.263 41.9433 155.163 41.83C155.063 41.7167 155.007 41.5633 154.993 41.37V41.19H154.943C154.83 41.4767 154.643 41.7033 154.383 41.87C154.123 42.0367 153.793 42.12 153.393 42.12C152.853 42.12 152.437 41.99 152.143 41.73C151.85 41.4633 151.703 41.09 151.703 40.61C151.703 40.1567 151.863 39.7967 152.183 39.53C152.51 39.2633 153.043 39.13 153.783 39.13H154.963V38.53C154.963 37.6833 154.527 37.26 153.653 37.26C153.313 37.26 153.03 37.3333 152.803 37.48C152.577 37.62 152.393 37.8233 152.253 38.09L151.893 37.79C152.033 37.49 152.247 37.2433 152.533 37.05C152.827 36.8567 153.207 36.76 153.673 36.76C154.273 36.76 154.733 36.91 155.053 37.21C155.373 37.51 155.533 37.93 155.533 38.47V41.5H156.223V42H155.643ZM153.473 41.63C153.68 41.63 153.873 41.6033 154.053 41.55C154.233 41.4967 154.39 41.4233 154.523 41.33C154.663 41.23 154.77 41.1133 154.843 40.98C154.923 40.84 154.963 40.6833 154.963 40.51V39.56H153.763C153.25 39.56 152.877 39.6433 152.643 39.81C152.417 39.97 152.303 40.1933 152.303 40.48V40.72C152.303 41.02 152.41 41.2467 152.623 41.4C152.837 41.5533 153.12 41.63 153.473 41.63ZM158.027 42C157.82 42 157.663 41.9433 157.557 41.83C157.45 41.7167 157.397 41.5667 157.397 41.38V34.6H157.967V41.5H158.757V42H158.027ZM161.864 42.12C161.524 42.12 161.214 42.06 160.934 41.94C160.66 41.82 160.424 41.6467 160.224 41.42C160.03 41.1867 159.88 40.9033 159.774 40.57C159.674 40.2367 159.624 39.86 159.624 39.44C159.624 39.02 159.674 38.6467 159.774 38.32C159.88 37.9867 160.03 37.7067 160.224 37.48C160.424 37.2467 160.66 37.07 160.934 36.95C161.207 36.8233 161.514 36.76 161.854 36.76C162.18 36.76 162.477 36.8233 162.744 36.95C163.01 37.07 163.237 37.24 163.424 37.46C163.61 37.68 163.754 37.9467 163.854 38.26C163.96 38.5667 164.014 38.9067 164.014 39.28V39.55H160.224V39.8C160.224 40.0667 160.26 40.3133 160.334 40.54C160.414 40.76 160.524 40.95 160.664 41.11C160.81 41.27 160.987 41.3967 161.194 41.49C161.4 41.5767 161.634 41.62 161.894 41.62C162.64 41.62 163.157 41.2767 163.444 40.59L163.864 40.87C163.704 41.25 163.45 41.5533 163.104 41.78C162.764 42.0067 162.35 42.12 161.864 42.12ZM161.854 37.24C161.607 37.24 161.384 37.2867 161.184 37.38C160.984 37.4667 160.81 37.59 160.664 37.75C160.524 37.91 160.414 38.1033 160.334 38.33C160.26 38.55 160.224 38.7933 160.224 39.06V39.11H163.394V39.03C163.394 38.7633 163.357 38.52 163.284 38.3C163.21 38.0733 163.104 37.8833 162.964 37.73C162.83 37.5767 162.667 37.4567 162.474 37.37C162.287 37.2833 162.08 37.24 161.854 37.24ZM169.736 42.12C169.163 42.12 168.683 42.0133 168.296 41.8C167.916 41.58 167.59 41.29 167.316 40.93L167.766 40.56C168.013 40.8867 168.29 41.14 168.596 41.32C168.91 41.5 169.296 41.59 169.756 41.59C170.296 41.59 170.71 41.4633 170.996 41.21C171.29 40.95 171.436 40.59 171.436 40.13C171.436 39.7033 171.313 39.39 171.066 39.19C170.82 38.99 170.473 38.8433 170.026 38.75L169.406 38.62C168.74 38.4867 168.256 38.2633 167.956 37.95C167.656 37.6367 167.506 37.2367 167.506 36.75C167.506 36.4433 167.56 36.1767 167.666 35.95C167.773 35.7167 167.923 35.5233 168.116 35.37C168.316 35.2167 168.553 35.1 168.826 35.02C169.106 34.94 169.413 34.9 169.746 34.9C170.266 34.9 170.706 34.9933 171.066 35.18C171.426 35.3667 171.723 35.63 171.956 35.97L171.506 36.3C171.313 36.02 171.07 35.8067 170.776 35.66C170.49 35.5067 170.136 35.43 169.716 35.43C169.216 35.43 168.82 35.54 168.526 35.76C168.24 35.9733 168.096 36.2967 168.096 36.73C168.096 37.1433 168.226 37.4467 168.486 37.64C168.746 37.8333 169.093 37.9733 169.526 38.06L170.146 38.19C170.84 38.3433 171.326 38.58 171.606 38.9C171.886 39.22 172.026 39.62 172.026 40.1C172.026 40.74 171.823 41.2367 171.416 41.59C171.01 41.9433 170.45 42.12 169.736 42.12ZM173.79 35.49C173.657 35.49 173.557 35.4567 173.49 35.39C173.43 35.3233 173.4 35.2367 173.4 35.13V35.03C173.4 34.9233 173.43 34.8367 173.49 34.77C173.557 34.7033 173.657 34.67 173.79 34.67C173.923 34.67 174.02 34.7033 174.08 34.77C174.147 34.8367 174.18 34.9233 174.18 35.03V35.13C174.18 35.2367 174.147 35.3233 174.08 35.39C174.02 35.4567 173.923 35.49 173.79 35.49ZM173.51 36.88H174.08V42H173.51V36.88ZM175.942 42V36.88H176.512V37.69H176.542C176.595 37.5633 176.662 37.4467 176.742 37.34C176.822 37.2267 176.918 37.1267 177.032 37.04C177.145 36.9533 177.278 36.8867 177.432 36.84C177.592 36.7867 177.778 36.76 177.992 36.76C178.358 36.76 178.682 36.8467 178.962 37.02C179.242 37.1933 179.445 37.4667 179.572 37.84H179.602C179.695 37.54 179.872 37.2867 180.132 37.08C180.398 36.8667 180.758 36.76 181.212 36.76C181.758 36.76 182.178 36.93 182.472 37.27C182.765 37.6033 182.912 38.0833 182.912 38.71V42H182.342V38.81C182.342 37.7833 181.912 37.27 181.052 37.27C180.872 37.27 180.702 37.2933 180.542 37.34C180.382 37.3867 180.238 37.46 180.112 37.56C179.992 37.6533 179.895 37.7733 179.822 37.92C179.748 38.06 179.712 38.2233 179.712 38.41V42H179.142V38.81C179.142 37.7833 178.715 37.27 177.862 37.27C177.688 37.27 177.518 37.2933 177.352 37.34C177.192 37.3867 177.048 37.4567 176.922 37.55C176.795 37.6433 176.695 37.7633 176.622 37.91C176.548 38.05 176.512 38.2133 176.512 38.4V42H175.942ZM184.701 36.88H185.271V37.7H185.301C185.428 37.4133 185.621 37.1867 185.881 37.02C186.141 36.8467 186.468 36.76 186.861 36.76C187.521 36.76 188.038 36.9933 188.411 37.46C188.785 37.9267 188.971 38.5867 188.971 39.44C188.971 40.2933 188.785 40.9533 188.411 41.42C188.038 41.8867 187.521 42.12 186.861 42.12C186.468 42.12 186.145 42.0367 185.891 41.87C185.638 41.6967 185.441 41.4667 185.301 41.18H185.271V44H184.701V36.88ZM186.731 41.61C187.245 41.61 187.645 41.4467 187.931 41.12C188.218 40.7933 188.361 40.3533 188.361 39.8V39.08C188.361 38.5267 188.218 38.0867 187.931 37.76C187.645 37.4333 187.245 37.27 186.731 37.27C186.531 37.27 186.341 37.3 186.161 37.36C185.988 37.4133 185.835 37.49 185.701 37.59C185.568 37.69 185.461 37.81 185.381 37.95C185.308 38.09 185.271 38.2433 185.271 38.41V40.44C185.271 40.62 185.308 40.7833 185.381 40.93C185.461 41.07 185.568 41.1933 185.701 41.3C185.835 41.4 185.988 41.4767 186.161 41.53C186.341 41.5833 186.531 41.61 186.731 41.61ZM191.074 42C190.867 42 190.71 41.9433 190.604 41.83C190.497 41.7167 190.444 41.5667 190.444 41.38V34.6H191.014V41.5H191.804V42H191.074ZM194.91 42.12C194.57 42.12 194.26 42.06 193.98 41.94C193.707 41.82 193.47 41.6467 193.27 41.42C193.077 41.1867 192.927 40.9033 192.82 40.57C192.72 40.2367 192.67 39.86 192.67 39.44C192.67 39.02 192.72 38.6467 192.82 38.32C192.927 37.9867 193.077 37.7067 193.27 37.48C193.47 37.2467 193.707 37.07 193.98 36.95C194.254 36.8233 194.56 36.76 194.9 36.76C195.227 36.76 195.524 36.8233 195.79 36.95C196.057 37.07 196.284 37.24 196.47 37.46C196.657 37.68 196.8 37.9467 196.9 38.26C197.007 38.5667 197.06 38.9067 197.06 39.28V39.55H193.27V39.8C193.27 40.0667 193.307 40.3133 193.38 40.54C193.46 40.76 193.57 40.95 193.71 41.11C193.857 41.27 194.034 41.3967 194.24 41.49C194.447 41.5767 194.68 41.62 194.94 41.62C195.687 41.62 196.204 41.2767 196.49 40.59L196.91 40.87C196.75 41.25 196.497 41.5533 196.15 41.78C195.81 42.0067 195.397 42.12 194.91 42.12ZM194.9 37.24C194.654 37.24 194.43 37.2867 194.23 37.38C194.03 37.4667 193.857 37.59 193.71 37.75C193.57 37.91 193.46 38.1033 193.38 38.33C193.307 38.55 193.27 38.7933 193.27 39.06V39.11H196.44V39.03C196.44 38.7633 196.404 38.52 196.33 38.3C196.257 38.0733 196.15 37.8833 196.01 37.73C195.877 37.5767 195.714 37.4567 195.52 37.37C195.334 37.2833 195.127 37.24 194.9 37.24ZM198.51 42V36.88H199.08V37.8H199.12C199.22 37.56 199.39 37.3467 199.63 37.16C199.87 36.9733 200.21 36.88 200.65 36.88H200.99V37.44H200.54C200.113 37.44 199.763 37.5333 199.49 37.72C199.217 37.9067 199.08 38.1667 199.08 38.5V42H198.51Z" fill="black"/>
</svg>
